<svg xmlns="http://www.w3.org/2000/svg" xmlns:xlink="http://www.w3.org/1999/xlink" viewBox="0 0 618.62 512.24"><defs><style>.cls-1{fill:#d8a997;}.cls-2{fill:#a37466;}.cls-3{fill:url(#linear-gradient);}.cls-4{fill:#f9f8f9;}</style><linearGradient id="linear-gradient" x1="106.51" y1="66.89" x2="482.34" y2="74.04" gradientUnits="userSpaceOnUse"><stop offset="0" stop-color="#d9aa98"/><stop offset="0.48" stop-color="#c19282"/><stop offset="1" stop-color="#a37466"/></linearGradient></defs><title>Asset 1</title><g id="Layer_2" data-name="Layer 2"><g id="Layer_1-2" data-name="Layer 1"><path class="cls-1" d="M373.87,431.33c-28.16,25.38-52.3,53.08-64.56,80.91-12.26-27.83-36.41-55.53-64.56-80.91Q236.59,424,228,416.89C168.55,367.5,97,324.16,48.68,269.62S-21,143.72,27.1,89.12c32.49-36.91,95.34-60.81,159.33-61.37C173.87,41.29,164.79,55.89,159.2,71,134.4,80.48,113.63,94.7,101,111.83,69.8,154,88.94,206.13,128,245.25S223.47,314,274.69,346.32c11.82,7.46,23.5,15.2,34.62,23.26C335.2,388.29,358.28,408.72,373.87,431.33Z"/><path class="cls-2" d="M569.94,269.62c-48.32,54.54-119.87,97.88-179.36,147.27-5.69,4.72-11.28,9.54-16.71,14.44-28.16,25.38-52.3,53.08-64.56,80.91-12.26-27.83-36.41-55.53-64.56-80.91,15.59-22.61,38.67-43,64.56-61.75,11.12-8.06,22.8-15.8,34.61-23.26C395.16,314,451.5,284.37,490.6,245.25S548.83,154,517.66,111.83C505,94.7,484.23,80.48,459.42,71c-5.59-15.06-14.67-29.66-27.24-43.2,64,.56,126.84,24.46,159.33,61.37C639.63,143.72,618.24,215.07,569.94,269.62Z"/><path class="cls-3" d="M457.61,70.74h-.78s-90.5,70.73-148.43,70.73S159.61,71.24,159.61,71.24h0S251.25,0,309.17,0,457.61,70.74,457.61,70.74Z"/><path class="cls-4" d="M212.47,49V87.12a2.78,2.78,0,0,1-5.56,0V49a2.78,2.78,0,1,1,5.56,0Zm25.59,40.66a3,3,0,0,1-1.22.28,2.81,2.81,0,0,1-2.51-1.56,46.86,46.86,0,0,0-7.34-11c-3.28-3.51-5.78-6.12-9.57-8.29l-.27-.17c-.12-.11-.23-.17-.34-.28a2.71,2.71,0,0,1-.72-1.5,2.79,2.79,0,0,1,1-2.67L234.33,47a2.75,2.75,0,0,1,3.95.06,2.79,2.79,0,0,1-.05,3.89l-15,15.3c7,5,12.51,12.23,16.13,19.69A2.77,2.77,0,0,1,238.06,89.62Z"/><path class="cls-4" d="M282.77,89.68a2.9,2.9,0,0,1-3.72-1.39l-3.84-8.57a23.46,23.46,0,0,0-10.73-.17,25.21,25.21,0,0,0-8.35,3.29,47.78,47.78,0,0,0-7.78,6.06,2.88,2.88,0,0,1-3.62.67c-1.22-.78-1.06-2.34-.5-3.62L261.81,47.8a2.82,2.82,0,0,1,2.55-1.62,2.78,2.78,0,0,1,2.51,1.62L284.16,86A2.85,2.85,0,0,1,282.77,89.68Zm-18.46-34L253.63,78.39a36.52,36.52,0,0,1,10-3.79,30,30,0,0,1,9.12-.5Z"/><path class="cls-4" d="M324.21,89.68A3.1,3.1,0,0,1,321,89L294.12,56.64V87.12a2.79,2.79,0,0,1-5.57,0V49a2.77,2.77,0,0,1,4.9-1.78l26.92,32.26V48.91a2.75,2.75,0,0,1,2.78-2.78,2.79,2.79,0,0,1,2.78,2.78V87.17A2.43,2.43,0,0,1,324.21,89.68Z"/><path class="cls-4" d="M345.84,89.9H333.21a2.8,2.8,0,0,1-2.83-2.78V49a2.58,2.58,0,0,1,.83-1.94,3,3,0,0,1,2-.84H346a23.07,23.07,0,0,1,8.73,1.73,23.68,23.68,0,0,1,7.23,4.73,21.9,21.9,0,0,1,4.84,7,21.43,21.43,0,0,1,1.78,8.51,19.89,19.89,0,0,1-1.83,8.35,21.74,21.74,0,0,1-4.9,7,23,23,0,0,1-7.23,4.73A23.53,23.53,0,0,1,345.84,89.9ZM336,84.28h10A18.36,18.36,0,0,0,352.46,83a17.06,17.06,0,0,0,5.45-3.51,18.35,18.35,0,0,0,3.72-5.22A14.39,14.39,0,0,0,363,68.15a15.34,15.34,0,0,0-1.34-6.28A17.26,17.26,0,0,0,346,51.74H336Z"/><path class="cls-4" d="M376,89.9a2.79,2.79,0,0,1-2.79-2.78V49A2.83,2.83,0,0,1,376,46.18,2.79,2.79,0,0,1,378.82,49V87.12A2.76,2.76,0,0,1,376,89.9Z"/><path class="cls-4" d="M399.89,90.79a29.59,29.59,0,0,1-4.39-.33,22.09,22.09,0,0,1-7.12-2.34,9.31,9.31,0,0,1-4.73-4.89c-.66-2,1.39-4.4,3.4-3.4a4,4,0,0,1,1.16,1.23c2,2.44,5.12,3.5,8.12,4a21,21,0,0,0,7.29-.11c2.61-.56,5.12-1.89,6.12-4.45a5.86,5.86,0,0,0,.17-4c-1.28-3.79-6-5.18-10-6a42.22,42.22,0,0,1-7.84-2.28c-2.67-1.06-5.34-2.67-6.84-5.23-1.83-3.06-1.5-7.9-.39-10.18,3.39-6.78,10-7.56,13.79-7.56a23.46,23.46,0,0,1,8.29,1.44c3.06,1.17,5.45,3.17,6.18,5.29a2.64,2.64,0,0,1-.5,2.61,2.32,2.32,0,0,1-2.9.67c-.27-.17-.5-.45-.78-.67a12.7,12.7,0,0,0-4.83-3.17,15,15,0,0,0-5.46-.72c-4.33,0-9.28,1.67-9.28,6.73,0,4.67,4.06,6.06,13.35,8.34,11.9,2.89,13.46,9.46,12.34,15C413.35,89.07,403.57,90.79,399.89,90.79Z"/><path class="cls-4" d="M175,172.45a3.11,3.11,0,0,1-3.14,3.14H145.46v15.79H168a3.2,3.2,0,0,1,3.15,3.15,3.15,3.15,0,0,1-3.15,3.14H145.46V215.6a3.15,3.15,0,1,1-6.3,0V172.45a3.16,3.16,0,0,1,3.15-3.15h29.57A3.15,3.15,0,0,1,175,172.45Z"/><path class="cls-4" d="M200.87,219.5a22.91,22.91,0,0,1-11.76-2.83,16.72,16.72,0,0,1-6.48-6.6,24,24,0,0,1-2.58-11.39V172.45a3.2,3.2,0,0,1,3.15-3.15,3.15,3.15,0,0,1,3.14,3.15v26.23a17.67,17.67,0,0,0,1.83,8.37,10.49,10.49,0,0,0,4.09,4.21,20,20,0,0,0,17.23,0,10.65,10.65,0,0,0,4-4.15,18.08,18.08,0,0,0,1.82-8.43V172.45a3.2,3.2,0,0,1,3.15-3.15,3.15,3.15,0,0,1,3.14,3.15v26.23a23.94,23.94,0,0,1-2.57,11.39C216.73,214.41,211.7,219.5,200.87,219.5Z"/><path class="cls-4" d="M260.38,218.68a3.21,3.21,0,0,1-3.08-2.58,24.06,24.06,0,0,0-3.59-9.24,11.08,11.08,0,0,0-4.4-3.84,9.31,9.31,0,0,0-3.65-1c-.82,0-1.7.07-2.58.07a3.14,3.14,0,0,1-3.08-2.9,3,3,0,0,1,2.52-3.33,10.83,10.83,0,0,1,3.2-.19,17.83,17.83,0,0,0,7.74-1.95c2.77-1.57,4.09-4,4.09-7.74a13.05,13.05,0,0,0-1.38-6.23,8.44,8.44,0,0,0-2.9-2.89,11,11,0,0,0-4.78-1.32H233v40a3.15,3.15,0,0,1-3.14,3.14,3.19,3.19,0,0,1-3.15-3.14V172.38a3.15,3.15,0,0,1,3.15-3.14h18.68a15.32,15.32,0,0,1,3.71.5,15.08,15.08,0,0,1,7.11,3.9,14.41,14.41,0,0,1,3.27,5,20.39,20.39,0,0,1,1.26,7.3c0,5.91-2.51,10.51-7.23,13.21-.32.19-.63.32-1,.51a18.87,18.87,0,0,1,3.08,3.27,29.47,29.47,0,0,1,4.78,11.95,3.15,3.15,0,0,1-2.45,3.71C260.76,218.62,260.57,218.68,260.38,218.68Z"/><path class="cls-4" d="M309.2,218.5a3.52,3.52,0,0,1-3.65-.82l-30.39-36.55V215.6a3.15,3.15,0,1,1-6.29,0V172.45a3.14,3.14,0,0,1,5.54-2l30.44,36.49V172.38a3.12,3.12,0,0,1,3.15-3.14,3.15,3.15,0,0,1,3.15,3.14v43.28A2.74,2.74,0,0,1,309.2,218.5Z"/><path class="cls-4" d="M319.63,218.75a3.16,3.16,0,0,1-3.14-3.15V172.45a3.2,3.2,0,0,1,3.14-3.15,3.16,3.16,0,0,1,3.15,3.15V215.6A3.12,3.12,0,0,1,319.63,218.75Z"/><path class="cls-4" d="M368.32,172.45a3.11,3.11,0,0,1-3.14,3.14H351.4v40a3.16,3.16,0,0,1-3.14,3.15,3.12,3.12,0,0,1-3.15-3.15v-40H331.27a3.15,3.15,0,1,1,0-6.29h33.91A3.11,3.11,0,0,1,368.32,172.45Z"/><path class="cls-4" d="M394.17,219.5a22.91,22.91,0,0,1-11.76-2.83,16.72,16.72,0,0,1-6.48-6.6,24,24,0,0,1-2.58-11.39V172.45a3.2,3.2,0,0,1,3.15-3.15,3.15,3.15,0,0,1,3.14,3.15v26.23a17.67,17.67,0,0,0,1.83,8.37,10.49,10.49,0,0,0,4.09,4.21,20,20,0,0,0,17.23,0,10.65,10.65,0,0,0,4-4.15,18.08,18.08,0,0,0,1.82-8.43V172.45a3.2,3.2,0,0,1,3.15-3.15,3.16,3.16,0,0,1,3.15,3.15v26.23a23.86,23.86,0,0,1-2.58,11.39C410,214.41,405,219.5,394.17,219.5Z"/><path class="cls-4" d="M453.68,218.68a3.22,3.22,0,0,1-3.08-2.58,23.9,23.9,0,0,0-3.59-9.24,11.08,11.08,0,0,0-4.4-3.84,9.31,9.31,0,0,0-3.65-1c-.82,0-1.7.07-2.58.07a3.14,3.14,0,0,1-3.08-2.9,3,3,0,0,1,2.52-3.33,10.88,10.88,0,0,1,3.21-.19,17.78,17.78,0,0,0,7.73-1.95c2.77-1.57,4.09-4,4.09-7.74a13.05,13.05,0,0,0-1.38-6.23,8.44,8.44,0,0,0-2.9-2.89,11,11,0,0,0-4.78-1.32H426.25v40a3.15,3.15,0,0,1-3.14,3.14,3.19,3.19,0,0,1-3.15-3.14V172.38a3.15,3.15,0,0,1,3.15-3.14h18.68a15.43,15.43,0,0,1,3.72.5,15.1,15.1,0,0,1,7.1,3.9,14.41,14.41,0,0,1,3.27,5,20.39,20.39,0,0,1,1.26,7.3c0,5.91-2.51,10.51-7.23,13.21-.32.19-.63.32-1,.51A18.87,18.87,0,0,1,452,203a29.61,29.61,0,0,1,4.79,11.95,3.16,3.16,0,0,1-2.46,3.71C454.06,218.62,453.87,218.68,453.68,218.68Z"/><path class="cls-4" d="M498.53,215.6a3.12,3.12,0,0,1-3.14,3.15H465.32a3.16,3.16,0,0,1-3.15-3.15V172.45a3.16,3.16,0,0,1,3.15-3.15h29.44a3.15,3.15,0,0,1,0,6.29h-26.3v15.16h23.28a3.15,3.15,0,0,1,3.14,3.15,3.11,3.11,0,0,1-3.14,3.14H468.46v15.42h26.93A3.11,3.11,0,0,1,498.53,215.6Z"/></g></g></svg>